HIERARCHY
ROOT root
{
	OFFSET 0.000000 0.000000 0.000000
	CHANNELS 6 Xposition Yposition Zposition Zrotation Yrotation Xrotation
	JOINT lhip
	{
		OFFSET 0.058581 -0.082280 -0.017664
		CHANNELS 3 Zrotation Yrotation Xrotation
		JOINT lknee
		{
			OFFSET 0.043451 -0.386469 0.008037
			CHANNELS 3 Zrotation Yrotation Xrotation
			JOINT lankle
			{
				OFFSET -0.014790 -0.426874 -0.037428
				CHANNELS 3 Zrotation Yrotation Xrotation
				JOINT ltoe
				{
					OFFSET 0.041054 -0.060286 0.122042
					CHANNELS 3 Zrotation Yrotation Xrotation
					End Site
					{
						OFFSET 0.000000 0.000000 0.000000
					}
				}
			}
		}
	}
	JOINT rhip
	{
		OFFSET -0.060310 -0.090513 -0.013543
		CHANNELS 3 Zrotation Yrotation Xrotation
		JOINT rknee
		{
			OFFSET -0.043257 -0.383688 -0.004843
			CHANNELS 3 Zrotation Yrotation Xrotation
			JOINT rankle
			{
				OFFSET 0.019056 -0.420046 -0.034562
				CHANNELS 3 Zrotation Yrotation Xrotation
				JOINT rtoe
				{
					OFFSET -0.034840 -0.062106 0.130323
					CHANNELS 3 Zrotation Yrotation Xrotation
					End Site
					{
						OFFSET 0.000000 0.000000 0.000000
					}
				}
			}
		}
	}
	JOINT lowerback
	{
		OFFSET 0.004439 0.124404 -0.038385
		CHANNELS 3 Zrotation Yrotation Xrotation
		JOINT upperback
		{
			OFFSET 0.004488 0.137956 0.026820
			CHANNELS 3 Zrotation Yrotation Xrotation
			JOINT chest
			{
				OFFSET -0.002265 0.056032 0.002855
				CHANNELS 3 Zrotation Yrotation Xrotation
				JOINT lowerneck
				{
					OFFSET -0.013390 0.211636 -0.033468
					CHANNELS 3 Zrotation Yrotation Xrotation
					JOINT upperneck
					{
						OFFSET 0.010113 0.088937 0.050410
						CHANNELS 3 Zrotation Yrotation Xrotation
						End Site
						{
							OFFSET 0.000000 0.000000 0.000000
						}
					}
				}
				JOINT lclavicle
				{
					OFFSET 0.071702 0.114000 -0.018898
					CHANNELS 3 Zrotation Yrotation Xrotation
					JOINT lshoulder
					{
						OFFSET 0.122921 0.045205 -0.019046
						CHANNELS 3 Zrotation Yrotation Xrotation
						JOINT lelbow
						{
							OFFSET 0.255332 -0.015649 -0.022946
							CHANNELS 3 Zrotation Yrotation Xrotation
							JOINT lwrist
							{
								OFFSET 0.265709 0.012698 -0.007375
								CHANNELS 3 Zrotation Yrotation Xrotation
								End Site
								{
									OFFSET 0.000000 0.000000 0.000000
								}
							}
						}
					}
				}
				JOINT rclavicle
				{
					OFFSET -0.082954 0.112472 -0.023707
					CHANNELS 3 Zrotation Yrotation Xrotation
					JOINT rshoulder
					{
						OFFSET -0.113228 0.046853 -0.008472
						CHANNELS 3 Zrotation Yrotation Xrotation
						JOINT relbow
						{
							OFFSET -0.260127 -0.014369 -0.031269
							CHANNELS 3 Zrotation Yrotation Xrotation
							JOINT rwrist
							{
								OFFSET -0.269108 0.006794 -0.006027
								CHANNELS 3 Zrotation Yrotation Xrotation
								End Site
								{
									OFFSET 0.000000 0.000000 0.000000
								}
							}
						}
					}
				}
			}
		}
	}
}
MOTION
Frames: 16
Frame Time: 0.033333
1.113609 0.204929 0.977040 -91.804013 8.955938 82.351199 5.361723 -1.895765 6.397679 -4.739735 -19.289428 21.337016 4.449060 16.440535 -30.330530 0.000000 -0.000000 0.000000 -1.094746 -1.650851 -21.361142 2.953848 -12.283345 53.105191 7.741858 -11.326129 -20.745148 0.000000 -0.000000 0.000000 -5.387939 -1.025970 12.171457 3.546416 -2.307688 5.762254 0.648333 -2.724512 7.265931 5.421781 12.129475 0.398461 -1.282895 -1.455944 10.943481 -18.212486 6.878487 2.070538 -49.583084 -5.030498 5.288795 7.331870 -30.969599 3.745903 2.622725 -3.974980 -10.455467 24.366914 -6.252662 -1.010890 60.159314 -1.817001 12.430116 -16.139298 35.064077 -3.264458 6.412947 3.471515 -11.020806 
1.105495 0.210691 0.976008 -91.058715 9.966949 81.713811 6.900928 -1.894473 7.013548 -5.226573 -20.008040 22.743109 4.118272 16.428456 -31.234676 0.000000 -0.000000 0.000000 -3.407065 -2.383923 -23.473504 2.491203 -12.469094 52.234150 7.832189 -12.150162 -19.628542 0.000000 -0.000000 0.000000 -5.705059 -1.142509 12.174922 3.843426 -2.400926 5.969651 0.856994 -3.021895 7.311948 6.062266 12.110974 0.819960 -0.852625 -1.583482 11.152471 -17.831629 7.300043 2.341203 -48.212247 -5.878743 4.965083 6.272728 -31.200203 4.098732 2.400565 -4.188469 -10.872269 24.890581 -6.710477 -1.058270 59.358688 -1.882295 12.562944 -15.728752 34.429828 -3.612338 6.633770 3.431173 -10.339090 
1.096747 0.217244 0.974481 -89.915949 11.008475 81.083097 8.602836 -1.744791 7.513328 -5.784922 -20.882022 24.371162 3.622957 16.212886 -32.532771 0.000000 -0.000000 0.000000 -6.039347 -3.159022 -24.557482 2.434628 -12.268281 49.184434 7.966823 -12.529190 -15.480011 0.000000 -0.000000 0.000000 -6.007548 -1.319821 12.757257 4.015332 -2.494881 5.479476 1.143172 -3.406446 7.364625 6.402064 11.537068 0.983851 -0.499425 -1.668372 11.383705 -17.560880 7.829623 2.540325 -46.651662 -6.703403 4.622474 5.201991 -31.765697 4.738705 3.008378 -4.910943 -10.975016 25.509447 -7.518149 -1.239388 58.394222 -2.156733 12.716721 -14.709828 33.904623 -3.453358 6.370374 3.018447 -9.333066 
1.086402 0.224213 0.972406 -88.528582 12.150296 80.528544 10.320986 -1.855047 8.100342 -6.120529 -21.987894 25.921586 3.360843 15.893896 -33.514444 0.000000 -0.000000 0.000000 -8.453394 -4.272834 -24.859067 2.305811 -11.473803 44.935488 8.367097 -12.913649 -10.359703 0.000000 -0.000000 0.000000 -6.338366 -1.178898 12.787973 4.315128 -2.809246 5.648327 1.497114 -3.821663 7.160837 6.820428 10.746014 1.751111 0.370432 -1.614892 11.608526 -17.121630 8.007110 3.009548 -45.381980 -7.670438 4.239304 4.350747 -32.638772 4.615566 2.804777 -4.370600 -11.264283 26.054929 -8.120377 -1.200117 57.570696 -2.680830 12.801745 -14.237948 33.483237 -3.743288 7.170924 2.907360 -8.395583 
1.074409 0.232164 0.970084 -86.817165 13.576101 79.899623 12.396704 -2.134767 8.703449 -6.614858 -23.420098 27.909127 2.650009 15.677260 -35.150024 0.000000 -0.000000 0.000000 -10.607552 -5.795602 -23.827545 2.503504 -10.685915 39.401168 8.645422 -13.043217 -8.469912 0.000000 -0.000000 0.000000 -6.381440 -1.188854 12.695954 4.536735 -3.291885 5.994281 1.715990 -4.187305 7.085804 7.300930 10.340121 2.340023 0.827391 -1.998037 11.605035 -16.785819 8.098147 3.639978 -43.611870 -8.268370 4.083530 3.230429 -34.194432 6.632860 3.810697 -4.888852 -11.583752 26.415313 -8.641923 -1.097738 57.118716 -3.261836 12.618061 -13.247771 32.931569 -3.206039 6.176234 2.557917 -8.145881 
1.062063 0.241694 0.967085 -85.493612 14.800479 79.389150 14.351540 -2.616236 9.282471 -7.096628 -24.451561 29.750511 2.078491 15.569810 -36.697664 0.000000 -0.000000 0.000000 -12.637086 -6.713049 -22.680386 2.381068 -9.638557 33.772168 9.177613 -13.321730 -3.963008 0.000000 -0.000000 0.000000 -6.639703 -0.975697 12.388057 4.696638 -3.614836 6.306123 1.932261 -4.422786 6.930400 7.788702 9.740069 3.215614 1.704700 -2.083674 11.844488 -16.530603 8.240194 4.241026 -41.759727 -8.989145 3.778253 2.203528 -35.632047 7.516957 4.005701 -5.488040 -11.959950 26.934038 -9.254984 -1.123082 56.574773 -3.977853 12.683315 -12.470711 32.092244 -3.166428 6.061559 2.451100 -7.765141 
1.049553 0.252286 0.963210 -84.497344 15.894452 79.114752 16.255600 -2.941987 9.748446 -7.288084 -25.260961 31.091909 1.793454 15.637610 -38.154850 0.000000 -0.000000 0.000000 -14.505316 -7.673500 -21.927866 2.540799 -8.489194 28.459019 10.039529 -13.577594 2.472304 0.000000 -0.000000 0.000000 -7.065116 -0.678908 11.971379 4.825261 -3.697338 6.312221 2.126190 -4.688357 6.840803 8.196013 8.816771 3.765542 2.404100 -2.087650 12.051586 -16.293703 8.847905 4.488464 -40.072036 -9.937972 3.454769 1.096951 -36.998796 8.514617 4.346639 -5.935478 -12.070580 27.194203 -10.257252 -1.222019 56.125649 -4.503408 12.895167 -11.207419 31.425768 -2.818478 5.888195 2.281428 -6.884407 
1.035957 0.264583 0.959022 -83.955791 17.004553 78.707395 18.298058 -3.319018 10.618639 -7.487309 -26.181073 32.264866 1.435281 15.745514 -39.466472 0.000000 -0.000000 0.000000 -15.918711 -8.312059 -21.016903 2.736005 -7.464272 23.620069 11.344913 -13.127430 7.851308 0.000000 -0.000000 0.000000 -7.455074 -0.493985 11.258954 4.795482 -3.815514 6.839647 2.274106 -4.623316 6.576584 8.542200 8.310043 4.756001 3.250766 -2.111220 12.192012 -15.913168 9.033286 5.050839 -38.511013 -10.031672 3.136646 0.811513 -38.765681 8.539032 4.606287 -6.234169 -11.908833 27.241918 -10.562857 -0.936685 56.135670 -5.231561 12.800411 -10.586707 30.529652 -2.585864 5.922201 2.071784 -6.396227 
1.021726 0.278290 0.954399 -83.639701 17.963006 78.831113 20.401630 -3.550300 11.119105 -7.639148 -26.863551 33.021186 1.004531 16.164223 -40.701342 0.000000 -0.000000 0.000000 -16.993894 -9.129372 -20.757481 3.210495 -6.039590 19.601768 12.526776 -12.833172 10.863536 0.000000 -0.000000 0.000000 -7.814769 -0.349434 10.817301 4.700939 -3.659876 5.775326 2.337741 -4.777106 6.551732 9.106879 7.775379 5.717514 4.186982 -2.262519 12.693121 -15.746979 9.895058 5.352028 -36.711630 -10.266713 2.812023 -0.615651 -39.825378 9.646902 5.028512 -6.587700 -11.314789 27.554677 -11.559390 -0.591131 55.366708 -6.171556 12.812686 -9.358713 30.225356 -1.717015 5.622652 2.022306 -5.309306 
1.007043 0.293728 0.949162 -83.552017 18.701072 78.616671 22.536544 -3.808105 12.171053 -7.848593 -27.664200 33.510117 0.237508 16.177107 -41.889673 0.000000 -0.000000 0.000000 -17.918325 -10.012924 -20.792323 3.370981 -6.068974 17.495822 13.053973 -13.247291 12.570966 0.000000 -0.000000 0.000000 -8.482638 -0.266692 10.124753 4.570787 -3.588493 5.922384 2.379488 -4.780396 6.395225 9.467431 7.517332 6.236824 4.772747 -2.455353 12.668595 -15.272779 10.379782 5.653225 -35.268149 -10.361383 2.483403 -1.662718 -40.603237 10.717315 5.433147 -6.705673 -11.627276 27.412309 -12.211254 -0.544864 55.336329 -7.092183 12.694891 -8.519870 29.744581 -0.977397 5.651091 2.059747 -4.696806 
0.991870 0.310331 0.944293 -83.396738 19.406640 78.205253 24.766548 -4.228759 13.466090 -7.954827 -28.537282 33.709034 -0.464877 16.062279 -42.756311 0.000000 -0.000000 0.000000 -18.643956 -11.000199 -20.476445 3.596208 -6.824498 15.818145 13.197202 -14.372579 14.713688 0.000000 -0.000000 0.000000 -9.097275 -0.374488 9.726907 4.270822 -3.619596 6.326519 2.386248 -4.864118 6.203302 9.873360 7.600881 6.781539 5.130693 -1.938032 12.783691 -15.110244 10.823164 5.925618 -33.580930 -10.254370 1.903551 -2.530448 -41.289893 11.101218 5.574226 -6.882401 -11.733964 27.234606 -12.518930 -0.335072 55.081347 -7.746001 12.654688 -7.403560 28.952774 -0.403147 5.786568 2.097458 -4.446371 
0.975515 0.328560 0.939235 -83.100976 19.976808 77.810817 27.211429 -4.533642 14.897534 -8.192441 -29.692341 33.543668 -1.981748 15.397139 -42.936411 0.000000 -0.000000 0.000000 -19.050005 -11.720584 -20.092088 3.881413 -7.832616 14.400729 13.042273 -15.333625 15.469019 0.000000 -0.000000 0.000000 -9.980452 -0.517993 9.512718 4.006674 -3.736107 6.750816 2.578601 -4.969686 6.050242 10.004198 7.502224 7.422720 5.699482 -1.794561 12.391065 -14.738980 11.101246 6.374128 -32.281291 -9.998394 1.478630 -3.421717 -41.801881 11.487611 6.407924 -7.003197 -11.920030 26.950987 -12.826375 -0.014730 54.649717 -8.666237 12.310976 -6.135683 28.651935 0.579282 5.236862 2.069002 -4.012344 
0.959428 0.348821 0.934322 -82.657109 20.344225 78.089474 29.748140 -4.910952 15.435699 -8.614711 -30.596638 33.471464 -3.363300 14.626058 -42.475817 0.000000 -0.000000 0.000000 -19.211549 -12.171990 -20.552385 4.088278 -7.644009 13.976268 13.338003 -15.410973 17.076245 0.000000 -0.000000 0.000000 -11.069160 -0.625161 9.112586 3.886299 -3.897007 6.890023 2.662831 -5.146458 5.777445 10.189402 7.497495 8.235474 6.361858 -1.884975 12.163829 -14.371494 11.391772 6.667523 -30.841331 -9.725105 1.294330 -4.516172 -42.089847 12.646594 6.052691 -7.235727 -11.531859 26.725801 -13.608988 0.027861 53.933608 -9.939846 12.177214 -4.714095 28.697747 2.248162 5.958348 1.954093 -4.362862 
0.943088 0.369856 0.928328 -81.729252 20.340117 78.338224 31.714072 -5.627567 15.988835 -8.731764 -31.535701 33.240578 -4.650708 14.142272 -41.736051 0.000000 -0.000000 0.000000 -19.786455 -12.443985 -20.401363 4.408661 -7.475706 13.025820 13.703672 -15.830614 21.136833 0.000000 -0.000000 0.000000 -11.981847 -0.689655 8.910584 3.503399 -4.267289 7.382316 2.570673 -5.418767 5.460169 10.227687 7.739894 9.675758 7.354106 -1.332978 12.083720 -14.071830 11.016260 7.547644 -29.362552 -9.466146 0.886821 -5.203496 -42.245842 12.931914 6.253103 -7.720437 -11.098668 26.284733 -13.979762 0.715099 53.541544 -10.954272 11.911283 -3.546777 28.630791 3.671761 6.125423 2.090847 -4.160952 
0.926886 0.390794 0.920139 -80.413492 19.162678 79.849916 31.655627 -7.739575 15.652159 -8.914143 -31.681235 32.752760 -3.974517 16.081706 -40.773274 0.000000 -0.000000 0.000000 -21.293159 -12.918117 -21.119964 5.049655 -6.825814 11.630257 15.350839 -17.077373 25.472486 0.000000 -0.000000 0.000000 -13.905942 -0.391988 7.283517 3.405677 -5.409495 9.345133 2.441598 -5.809802 4.762168 9.495250 8.738333 9.006145 8.802511 -1.429662 13.117018 -12.682614 9.238516 8.667761 -29.805725 -6.808896 -0.999308 -6.543990 -43.972552 16.298345 8.471330 -7.966557 -13.032908 24.288766 -12.520644 1.712118 55.685529 -13.385039 12.364997 -4.706442 29.413914 3.506654 5.756984 1.832135 -4.965712 
0.910006 0.413469 0.910651 -79.701209 18.313571 80.679321 32.872491 -7.835482 15.792007 -8.636162 -32.684046 32.135450 -4.598888 15.479516 -40.202459 0.000000 -0.000000 0.000000 -21.464877 -13.620267 -22.225819 5.200886 -6.350911 11.875131 17.104552 -16.417091 28.309810 0.000000 -0.000000 0.000000 -14.349291 -0.345173 7.524115 2.969656 -5.285697 9.529774 2.342107 -5.943738 4.568490 9.470229 8.805168 8.637677 8.955636 -1.198476 12.730500 -12.230479 9.298989 8.737709 -29.706027 -6.971670 -1.038423 -7.435350 -44.087497 17.221125 9.012469 -8.677745 -12.431672 23.250556 -13.045928 1.998030 55.150799 -14.964934 12.049326 -3.212844 29.909611 5.199227 6.778716 2.411066 -5.221745 
